<svg width="450" height="150" xmlns="http://www.w3.org/2000/svg"><g transform="translate(30,30)"><g class="bars"><rect y="0" height="19" width="420" fill="steelblue"></rect><rect y="20" height="19" width="230.00000000000003" fill="steelblue"></rect><rect y="40" height="19" width="160" fill="steelblue"></rect><rect y="60" height="19" width="150" fill="steelblue"></rect><rect y="80" height="19" width="80" fill="steelblue"></rect><rect y="100" height="19" width="40" fill="steelblue"></rect></g><g class="axis"><g class="tick" style="opacity: 1;" transform="translate(0,0)"><line y2="120" x2="0" style="stroke: #000;" font-size="70px"></line><text dy="0em" style="text-anchor: middle;" y="-3" x="0">0</text></g><g class="tick" style="opacity: 1;" transform="translate(50,0)"><line y2="120" x2="0"></line><text dy="0em" style="text-anchor: middle;" y="-3" x="0">5</text></g><g class="tick" style="opacity: 1;" transform="translate(100,0)"><line y2="120" x2="0"></line><text dy="0em" style="text-anchor: middle;" y="-3" x="0">10</text></g><g class="tick" style="opacity: 1;" transform="translate(150,0)"><line y2="120" x2="0"></line><text dy="0em" style="text-anchor: middle;" y="-3" x="0">15</text></g><g class="tick" style="opacity: 1;" transform="translate(200,0)"><line y2="120" x2="0"></line><text dy="0em" style="text-anchor: middle;" y="-3" x="0">20</text></g><g class="tick" style="opacity: 1;" transform="translate(250,0)"><line y2="120" x2="0"></line><text dy="0em" style="text-anchor: middle;" y="-3" x="0">25</text></g><g class="tick" style="opacity: 1;" transform="translate(300,0)"><line y2="120" x2="0"></line><text dy="0em" style="text-anchor: middle;" y="-3" x="0">30</text></g><g class="tick" style="opacity: 1;" transform="translate(350,0)"><line y2="120" x2="0"></line><text dy="0em" style="text-anchor: middle;" y="-3" x="0">35</text></g><g class="tick" style="opacity: 1;" transform="translate(400,0)"><line y2="120" x2="0"></line><text dy="0em" style="text-anchor: middle;" y="-3" x="0">40</text></g><path class="domain" d="m0,120v0h420v120"></path></g></g></svg>